<svg width="924" height="250" viewBox="0 0 924 250" fill="none" xmlns="http://www.w3.org/2000/svg">
<path d="M127.387 233.654C113.502 236.092 99.3714 236.823 84.7545 238.77L40.171 108.191V244.374C26.2852 245.836 13.6172 247.785 0.461548 249.733V0.266541H37.4928L88.1647 141.812V0.266541H127.387V233.654ZM204.128 91.6241C219.233 91.6241 242.377 90.893 256.263 90.893V129.871C238.965 129.871 218.746 129.871 204.128 130.602V188.585C227.029 187.124 249.929 185.173 273.072 184.442V221.957L165.148 230.486V0.266541H273.072V39.2458H204.128V91.6241ZM418.026 39.2467H377.585V218.551C364.43 218.551 351.274 218.551 338.608 219.037V39.2467H298.167V0.266541H418.028L418.026 39.2467ZM481.367 88.945H534.72V127.923H481.367V216.358H443.116V0.266541H552.017V39.2458H481.367V88.945ZM615.358 182.251C637.528 182.736 659.94 184.445 681.623 185.661V224.153C646.786 221.959 611.948 219.77 576.38 219.037V0.266541H615.358V182.251ZM714.511 226.833C726.936 227.565 740.091 228.296 752.759 229.756V0.266541H714.511V226.833ZM923.538 0.266541L874.083 118.91L923.538 249.733C908.92 247.785 894.303 245.105 879.685 242.668L851.67 170.558L823.169 236.823C809.036 234.385 795.394 233.654 781.266 231.705L831.452 117.447L786.137 0.266541H828.038L853.618 65.8005L880.905 0.266541H923.538Z" fill="#D81F26"/>
</svg>
